<?xml version="1.0" standalone="no"?>
<!DOCTYPE svg PUBLIC "-//W3C//DTD SVG 20010904//EN"
 "http://www.w3.org/TR/2001/REC-SVG-20010904/DTD/svg10.dtd">
<svg version="1.0" xmlns="http://www.w3.org/2000/svg"
 width="180.000000pt" height="49.000000pt" viewBox="0 0 180.000000 49.000000"
 preserveAspectRatio="xMidYMid meet">

<g transform="translate(0.000000,49.000000) scale(0.100000,-0.100000)"
fill="#000000" stroke="none">
<path d="M185 475 c-49 -17 -67 -41 -63 -80 4 -40 49 -61 147 -71 l74 -7 -7
37 c-6 32 -3 40 24 68 35 34 32 40 -30 58 -48 14 -97 12 -145 -5z"/>
<path d="M15 346 c-11 -39 -16 -77 -12 -110 6 -62 35 -126 53 -119 6 2 29 -6
51 -19 89 -55 177 -75 259 -58 70 15 144 79 144 126 0 42 -25 72 -65 80 -46 8
-81 -1 -106 -30 -26 -30 -62 -25 -53 9 5 20 1 23 -43 28 -112 14 -180 55 -200
119 l-10 33 -18 -59z m405 -140 c0 -2 -9 -6 -20 -9 -11 -3 -18 -1 -14 4 5 9
34 13 34 5z"/>
<path d="M534 325 c-11 -12 -27 -24 -35 -27 -11 -4 -9 -10 8 -29 18 -20 23
-39 25 -99 3 -67 5 -75 23 -75 17 0 20 8 23 58 l3 57 58 0 c43 0 60 4 65 15 4
12 -6 15 -58 15 l-63 0 -7 50 c-4 27 -10 51 -14 53 -4 2 -16 -6 -28 -18z"/>
<path d="M720 225 c-11 -13 -7 -15 29 -15 l41 0 0 -61 c0 -57 1 -60 23 -57 19
3 22 10 25 60 3 56 4 57 34 60 17 2 33 9 36 16 6 19 -172 17 -188 -3z"/>
<path d="M941 214 c-58 -74 4 -130 134 -122 l50 3 3 43 3 43 -52 -3 c-61 -4
-83 -28 -25 -28 20 0 36 -5 36 -10 0 -7 -22 -10 -57 -8 -52 3 -58 5 -61 26 -6
38 15 52 78 52 42 0 59 4 64 15 4 13 -8 15 -74 15 -73 0 -80 -2 -99 -26z"/>
<path d="M1160 165 c0 -68 2 -75 20 -75 16 0 19 8 22 58 l3 57 48 3 c42 3 47
1 47 -17 0 -17 -6 -21 -34 -21 -21 0 -36 -6 -40 -15 -3 -10 1 -15 14 -15 10 0
32 -11 48 -25 30 -25 72 -34 72 -15 0 5 -9 14 -20 20 -19 10 -19 13 -5 33 40
58 9 87 -96 87 l-79 0 0 -75z"/>
<path d="M1453 228 c-9 -11 -58 -101 -71 -130 -2 -5 8 -8 22 -8 21 0 31 10 52
53 33 64 33 65 44 47 15 -24 11 -40 -9 -40 -10 0 -21 -7 -25 -15 -4 -12 3 -15
33 -15 25 0 41 -5 45 -15 5 -13 56 -23 56 -11 0 2 -17 35 -39 73 -32 57 -43
68 -68 71 -16 2 -34 -3 -40 -10z"/>
<path d="M1620 164 c0 -72 1 -75 23 -72 19 3 22 10 25 61 l3 57 53 0 c35 0 58
5 66 15 11 13 1 15 -79 15 l-91 0 0 -76z"/>
<path d="M597 173 c-15 -14 -5 -23 27 -23 18 0 39 7 46 15 11 13 7 15 -27 15
-22 0 -43 -3 -46 -7z"/>
<path d="M1687 173 c-16 -16 -4 -24 30 -21 48 4 57 28 11 28 -19 0 -38 -3 -41
-7z"/>
<path d="M862 38 c2 -14 11 -24 23 -26 18 -2 18 -2 3 8 -10 6 -18 15 -18 20 0
5 8 11 18 13 12 3 11 5 -6 6 -19 1 -23 -3 -20 -21z"/>
<path d="M911 49 c-1 -22 25 -43 44 -35 8 3 15 16 14 28 l0 23 -9 -22 c-12
-29 -24 -29 -38 0 -8 16 -11 17 -11 6z"/>
<path d="M981 38 c1 -17 2 -19 6 -5 2 9 11 17 18 17 9 0 12 -6 8 -17 -4 -11
-3 -14 5 -9 22 13 13 36 -13 36 -20 0 -25 -5 -24 -22z"/>
<path d="M1040 49 c0 -6 10 -14 23 -17 22 -6 22 -6 -3 -13 l-25 -8 24 2 c32 3
40 27 9 28 -22 0 -22 1 -3 9 19 8 19 9 -2 9 -13 1 -23 -4 -23 -10z"/>
<path d="M1100 39 c0 -26 27 -35 48 -16 11 9 24 12 37 7 l20 -7 -20 -5 c-19
-5 -18 -6 2 -7 31 -1 40 19 12 26 -21 6 -22 7 -3 13 11 4 -5 7 -38 8 -51 0
-58 -2 -58 -19z m48 -1 c-7 -19 -38 -22 -38 -4 0 10 9 16 21 16 12 0 19 -5 17
-12z"/>
<path d="M1256 44 c-9 -23 -7 -31 3 -15 8 13 12 13 27 0 16 -13 16 -12 5 9
-14 26 -26 28 -35 6z"/>
<path d="M1300 55 c0 -5 4 -16 9 -24 8 -12 12 -12 25 -2 9 8 16 18 16 24 0 6
-6 2 -14 -8 -13 -18 -13 -18 -24 1 -6 10 -11 15 -12 9z"/>
<path d="M1360 38 c-10 -20 -9 -21 2 -6 13 15 15 15 25 0 7 -9 12 -12 12 -6 1
6 -5 17 -13 23 -12 10 -17 8 -26 -11z"/>
<path d="M1410 38 c0 -18 2 -20 9 -9 8 12 12 12 25 2 9 -8 16 -10 16 -6 0 9
-31 34 -42 35 -5 0 -8 -10 -8 -22z"/>
<path d="M1475 50 c-9 -14 13 -40 34 -39 11 0 9 3 -6 9 -13 5 -23 14 -23 19 0
5 10 12 23 14 22 4 22 4 0 6 -12 0 -25 -4 -28 -9z"/>
<path d="M1539 38 c-11 -20 -10 -21 3 -11 11 10 17 10 26 1 8 -8 12 -8 12 -1
0 6 -6 16 -14 22 -12 10 -17 8 -27 -11z"/>
<path d="M1600 34 c0 -26 18 -32 38 -12 8 8 15 8 26 -2 20 -16 46 -6 46 19 0
17 -7 19 -55 19 -51 -1 -55 -2 -55 -24z m38 4 c-6 -18 -28 -21 -28 -4 0 9 7
16 16 16 9 0 14 -5 12 -12z m62 -3 c0 -8 -6 -15 -14 -15 -17 0 -28 14 -19 24
12 12 33 6 33 -9z"/>
<path d="M1720 49 c0 -6 10 -13 22 -17 21 -5 21 -6 2 -14 -18 -8 -18 -8 0 -5
29 3 32 27 4 28 -23 1 -23 1 2 9 l25 8 -27 1 c-16 1 -28 -4 -28 -10z"/>
</g>
</svg>
